<svg xmlns="http://www.w3.org/2000/svg" xmlns:xlink="http://www.w3.org/1999/xlink" width="2000" zoomAndPan="magnify" viewBox="0 0 1500 449.999984" height="600" preserveAspectRatio="xMidYMid meet" version="1.0"><defs><g/><clipPath id="78a77077c9"><path d="M 47 73 L 174 73 L 174 214.441406 L 47 214.441406 Z M 47 73 " clip-rule="nonzero"/></clipPath><clipPath id="402dacbb11"><path d="M 0.121094 3 L 137 3 L 137 146 L 0.121094 146 Z M 0.121094 3 " clip-rule="nonzero"/></clipPath><clipPath id="e37e8334e6"><path d="M 0.121094 27 L 96 27 L 96 213 L 0.121094 213 Z M 0.121094 27 " clip-rule="nonzero"/></clipPath><clipPath id="30bf9859f2"><path d="M 0.121094 73 L 149 73 L 149 210 L 0.121094 210 Z M 0.121094 73 " clip-rule="nonzero"/></clipPath><clipPath id="832091e726"><path d="M 54 99 L 183 99 L 183 214.441406 L 54 214.441406 Z M 54 99 " clip-rule="nonzero"/></clipPath><clipPath id="cace1005a1"><path d="M 114 0.601562 L 257 0.601562 L 257 186 L 114 186 Z M 114 0.601562 " clip-rule="nonzero"/></clipPath><clipPath id="c157fe0480"><path d="M 80 99 L 207 99 L 207 214.441406 L 80 214.441406 Z M 80 99 " clip-rule="nonzero"/></clipPath><clipPath id="513adb37e4"><rect x="0" width="494" y="0" height="215"/></clipPath></defs><g transform="matrix(1, 0, 0, 1, 501, 117)"><g clip-path="url(#513adb37e4)"><g fill="#ffffff" fill-opacity="1"><g transform="translate(243.442527, 55.716974)"><g><path d="M 29.390625 -36.65625 L 29.390625 -30.5625 L 18.8125 -30.5625 L 18.8125 0 L 11.59375 0 L 11.59375 -30.5625 L 1 -30.5625 L 1 -36.65625 Z M 29.390625 -36.65625 "/></g></g></g><g fill="#ffffff" fill-opacity="1"><g transform="translate(273.83384, 55.716974)"><g><path d="M 3.984375 0 L 3.984375 -38.765625 L 10.9375 -38.765625 L 10.9375 -24.046875 L 11.453125 -23.953125 C 12.378906 -25.304688 13.507812 -26.347656 14.84375 -27.078125 C 16.1875 -27.816406 17.800781 -28.1875 19.6875 -28.1875 C 25.789062 -28.1875 28.84375 -24.726562 28.84375 -17.8125 L 28.84375 0 L 21.890625 0 L 21.890625 -16.921875 C 21.890625 -18.816406 21.515625 -20.1875 20.765625 -21.03125 C 20.015625 -21.882812 18.84375 -22.3125 17.25 -22.3125 C 15.3125 -22.3125 13.773438 -21.664062 12.640625 -20.375 C 11.503906 -19.082031 10.9375 -17.0625 10.9375 -14.3125 L 10.9375 0 Z M 3.984375 0 "/></g></g></g><g fill="#ffffff" fill-opacity="1"><g transform="translate(306.231181, 55.716974)"><g><path d="M 27.328125 -12.265625 L 9.546875 -12.265625 C 9.753906 -9.859375 10.441406 -8.101562 11.609375 -7 C 12.773438 -5.90625 14.375 -5.359375 16.40625 -5.359375 C 17.988281 -5.359375 19.273438 -5.65625 20.265625 -6.25 C 21.253906 -6.84375 22.046875 -7.742188 22.640625 -8.953125 L 23.171875 -8.953125 L 27.78125 -6 C 26.882812 -4.050781 25.523438 -2.472656 23.703125 -1.265625 C 21.878906 -0.0664062 19.445312 0.53125 16.40625 0.53125 C 13.539062 0.53125 11.066406 -0.0078125 8.984375 -1.09375 C 6.910156 -2.1875 5.304688 -3.804688 4.171875 -5.953125 C 3.046875 -8.097656 2.484375 -10.71875 2.484375 -13.8125 C 2.484375 -16.957031 3.078125 -19.609375 4.265625 -21.765625 C 5.453125 -23.921875 7.054688 -25.53125 9.078125 -26.59375 C 11.097656 -27.65625 13.375 -28.1875 15.90625 -28.1875 C 19.8125 -28.1875 22.804688 -27.148438 24.890625 -25.078125 C 26.972656 -23.003906 28.015625 -19.960938 28.015625 -15.953125 C 28.015625 -14.492188 27.960938 -13.363281 27.859375 -12.5625 Z M 21.359375 -16.75 C 21.296875 -18.851562 20.804688 -20.382812 19.890625 -21.34375 C 18.984375 -22.3125 17.65625 -22.796875 15.90625 -22.796875 C 12.394531 -22.796875 10.328125 -20.78125 9.703125 -16.75 Z M 21.359375 -16.75 "/></g></g></g><g fill="#ffffff" fill-opacity="1"><g transform="translate(243.442527, 127.262146)"><g><path d="M 29.140625 9.125 C 25.910156 9.125 23.226562 8.347656 21.09375 6.796875 C 18.96875 5.242188 17.535156 3.078125 16.796875 0.296875 C 14.003906 -0.0976562 11.566406 -1.046875 9.484375 -2.546875 C 7.410156 -4.046875 5.789062 -6.113281 4.625 -8.75 C 3.46875 -11.394531 2.890625 -14.585938 2.890625 -18.328125 C 2.890625 -22.523438 3.613281 -26.03125 5.0625 -28.84375 C 6.519531 -31.664062 8.53125 -33.757812 11.09375 -35.125 C 13.664062 -36.5 16.628906 -37.1875 19.984375 -37.1875 C 23.347656 -37.1875 26.304688 -36.503906 28.859375 -35.140625 C 31.421875 -33.785156 33.425781 -31.691406 34.875 -28.859375 C 36.320312 -26.035156 37.046875 -22.523438 37.046875 -18.328125 C 37.046875 -12.847656 35.867188 -8.640625 33.515625 -5.703125 C 31.171875 -2.765625 27.875 -0.9375 23.625 -0.21875 L 23.5 0.28125 C 24.019531 1.164062 24.789062 1.84375 25.8125 2.3125 C 26.84375 2.789062 28.046875 3.03125 29.421875 3.03125 C 30.523438 3.03125 31.519531 2.890625 32.40625 2.609375 L 32.90625 2.703125 L 33.9375 8.375 C 33.394531 8.570312 32.671875 8.742188 31.765625 8.890625 C 30.867188 9.046875 29.992188 9.125 29.140625 9.125 Z M 19.984375 -5.765625 C 23.097656 -5.765625 25.472656 -6.765625 27.109375 -8.765625 C 28.742188 -10.765625 29.5625 -13.953125 29.5625 -18.328125 C 29.5625 -22.710938 28.742188 -25.90625 27.109375 -27.90625 C 25.472656 -29.914062 23.097656 -30.921875 19.984375 -30.921875 C 16.859375 -30.921875 14.472656 -29.914062 12.828125 -27.90625 C 11.179688 -25.90625 10.359375 -22.710938 10.359375 -18.328125 C 10.359375 -13.953125 11.179688 -10.765625 12.828125 -8.765625 C 14.472656 -6.765625 16.859375 -5.765625 19.984375 -5.765625 Z M 19.984375 -5.765625 "/></g></g></g><g fill="#ffffff" fill-opacity="1"><g transform="translate(283.387545, 127.262146)"><g><path d="M 12.671875 0.53125 C 9.554688 0.53125 7.257812 -0.316406 5.78125 -2.015625 C 4.300781 -3.710938 3.5625 -6.148438 3.5625 -9.328125 L 3.5625 -27.65625 L 10.5 -27.65625 L 10.5 -10.203125 C 10.5 -8.515625 10.863281 -7.28125 11.59375 -6.5 C 12.320312 -5.726562 13.445312 -5.34375 14.96875 -5.34375 C 16.894531 -5.34375 18.390625 -5.972656 19.453125 -7.234375 C 20.523438 -8.492188 21.0625 -10.476562 21.0625 -13.1875 L 21.0625 -27.65625 L 28.015625 -27.65625 L 28.015625 0 L 21.34375 0 L 21.34375 -4.0625 L 20.8125 -4.1875 C 19.925781 -2.601562 18.84375 -1.421875 17.5625 -0.640625 C 16.289062 0.140625 14.660156 0.53125 12.671875 0.53125 Z M 12.671875 0.53125 "/></g></g></g><g fill="#ffffff" fill-opacity="1"><g transform="translate(243.442527, 198.807317)"><g><path d="M 18.9375 -36.65625 C 21.5625 -36.65625 23.804688 -36.175781 25.671875 -35.21875 C 27.535156 -34.257812 28.941406 -32.914062 29.890625 -31.1875 C 30.847656 -29.457031 31.328125 -27.445312 31.328125 -25.15625 C 31.328125 -22.863281 30.847656 -20.851562 29.890625 -19.125 C 28.941406 -17.40625 27.535156 -16.066406 25.671875 -15.109375 C 23.804688 -14.148438 21.5625 -13.671875 18.9375 -13.671875 L 12.015625 -13.671875 L 12.015625 0 L 4.765625 0 L 4.765625 -36.65625 Z M 17.984375 -19.40625 C 22.015625 -19.40625 24.03125 -21.320312 24.03125 -25.15625 C 24.03125 -29 22.015625 -30.921875 17.984375 -30.921875 L 12.015625 -30.921875 L 12.015625 -19.40625 Z M 17.984375 -19.40625 "/></g></g></g><g fill="#ffffff" fill-opacity="1"><g transform="translate(276.215948, 198.807317)"><g><path d="M 3.984375 0 L 3.984375 -27.65625 L 10.734375 -27.65625 L 10.734375 -23.546875 L 11.265625 -23.453125 C 11.929688 -24.984375 12.804688 -26.109375 13.890625 -26.828125 C 14.972656 -27.546875 16.296875 -27.90625 17.859375 -27.90625 C 19.429688 -27.90625 20.625 -27.640625 21.4375 -27.109375 L 20.265625 -21.109375 L 19.734375 -21.015625 C 19.285156 -21.203125 18.851562 -21.335938 18.4375 -21.421875 C 18.019531 -21.503906 17.507812 -21.546875 16.90625 -21.546875 C 14.96875 -21.546875 13.488281 -20.863281 12.46875 -19.5 C 11.445312 -18.132812 10.9375 -15.945312 10.9375 -12.9375 L 10.9375 0 Z M 3.984375 0 "/></g></g></g><g fill="#ffffff" fill-opacity="1"><g transform="translate(297.178882, 198.807317)"><g><path d="M 16.078125 0.53125 C 13.367188 0.53125 10.988281 -0.0234375 8.9375 -1.140625 C 6.894531 -2.253906 5.304688 -3.882812 4.171875 -6.03125 C 3.046875 -8.175781 2.484375 -10.769531 2.484375 -13.8125 C 2.484375 -16.851562 3.046875 -19.453125 4.171875 -21.609375 C 5.304688 -23.773438 6.894531 -25.410156 8.9375 -26.515625 C 10.988281 -27.628906 13.367188 -28.1875 16.078125 -28.1875 C 18.785156 -28.1875 21.160156 -27.628906 23.203125 -26.515625 C 25.253906 -25.410156 26.847656 -23.773438 27.984375 -21.609375 C 29.117188 -19.453125 29.6875 -16.851562 29.6875 -13.8125 C 29.6875 -10.769531 29.117188 -8.175781 27.984375 -6.03125 C 26.847656 -3.882812 25.253906 -2.253906 23.203125 -1.140625 C 21.160156 -0.0234375 18.785156 0.53125 16.078125 0.53125 Z M 16.078125 -5.359375 C 20.367188 -5.359375 22.515625 -8.175781 22.515625 -13.8125 C 22.515625 -16.738281 21.960938 -18.882812 20.859375 -20.25 C 19.753906 -21.613281 18.160156 -22.296875 16.078125 -22.296875 C 11.773438 -22.296875 9.625 -19.46875 9.625 -13.8125 C 9.625 -8.175781 11.773438 -5.359375 16.078125 -5.359375 Z M 16.078125 -5.359375 "/></g></g></g><g fill="#ffffff" fill-opacity="1"><g transform="translate(329.32547, 198.807317)"><g><path d="M 16.125 0.53125 C 13.445312 0.53125 11.078125 -0.0234375 9.015625 -1.140625 C 6.960938 -2.253906 5.359375 -3.890625 4.203125 -6.046875 C 3.054688 -8.203125 2.484375 -10.789062 2.484375 -13.8125 C 2.484375 -16.851562 3.054688 -19.453125 4.203125 -21.609375 C 5.359375 -23.773438 6.957031 -25.410156 9 -26.515625 C 11.039062 -27.628906 13.375 -28.1875 16 -28.1875 C 21.832031 -28.1875 25.566406 -26.070312 27.203125 -21.84375 L 22.4375 -18.4375 L 21.921875 -18.4375 C 21.347656 -19.738281 20.601562 -20.707031 19.6875 -21.34375 C 18.78125 -21.976562 17.550781 -22.296875 16 -22.296875 C 13.988281 -22.296875 12.421875 -21.597656 11.296875 -20.203125 C 10.179688 -18.816406 9.625 -16.6875 9.625 -13.8125 C 9.625 -10.96875 10.191406 -8.847656 11.328125 -7.453125 C 12.472656 -6.054688 14.070312 -5.359375 16.125 -5.359375 C 17.625 -5.359375 18.894531 -5.765625 19.9375 -6.578125 C 20.988281 -7.390625 21.738281 -8.554688 22.1875 -10.078125 L 22.71875 -10.125 L 27.65625 -7.421875 C 26.957031 -5.078125 25.660156 -3.164062 23.765625 -1.6875 C 21.867188 -0.207031 19.320312 0.53125 16.125 0.53125 Z M 16.125 0.53125 "/></g></g></g><g fill="#ffffff" fill-opacity="1"><g transform="translate(357.836132, 198.807317)"><g><path d="M 27.328125 -12.265625 L 9.546875 -12.265625 C 9.753906 -9.859375 10.441406 -8.101562 11.609375 -7 C 12.773438 -5.90625 14.375 -5.359375 16.40625 -5.359375 C 17.988281 -5.359375 19.273438 -5.65625 20.265625 -6.25 C 21.253906 -6.84375 22.046875 -7.742188 22.640625 -8.953125 L 23.171875 -8.953125 L 27.78125 -6 C 26.882812 -4.050781 25.523438 -2.472656 23.703125 -1.265625 C 21.878906 -0.0664062 19.445312 0.53125 16.40625 0.53125 C 13.539062 0.53125 11.066406 -0.0078125 8.984375 -1.09375 C 6.910156 -2.1875 5.304688 -3.804688 4.171875 -5.953125 C 3.046875 -8.097656 2.484375 -10.71875 2.484375 -13.8125 C 2.484375 -16.957031 3.078125 -19.609375 4.265625 -21.765625 C 5.453125 -23.921875 7.054688 -25.53125 9.078125 -26.59375 C 11.097656 -27.65625 13.375 -28.1875 15.90625 -28.1875 C 19.8125 -28.1875 22.804688 -27.148438 24.890625 -25.078125 C 26.972656 -23.003906 28.015625 -19.960938 28.015625 -15.953125 C 28.015625 -14.492188 27.960938 -13.363281 27.859375 -12.5625 Z M 21.359375 -16.75 C 21.296875 -18.851562 20.804688 -20.382812 19.890625 -21.34375 C 18.984375 -22.3125 17.65625 -22.796875 15.90625 -22.796875 C 12.394531 -22.796875 10.328125 -20.78125 9.703125 -16.75 Z M 21.359375 -16.75 "/></g></g></g><g fill="#ffffff" fill-opacity="1"><g transform="translate(387.901466, 198.807317)"><g><path d="M 12.9375 0.53125 C 11.050781 0.53125 9.320312 0.3125 7.75 -0.125 C 6.175781 -0.570312 4.832031 -1.1875 3.71875 -1.96875 C 2.613281 -2.75 1.789062 -3.640625 1.25 -4.640625 L 5.109375 -8.796875 L 5.640625 -8.796875 C 6.554688 -7.566406 7.640625 -6.640625 8.890625 -6.015625 C 10.148438 -5.398438 11.515625 -5.09375 12.984375 -5.09375 C 14.335938 -5.09375 15.359375 -5.332031 16.046875 -5.8125 C 16.734375 -6.300781 17.078125 -7 17.078125 -7.90625 C 17.078125 -8.601562 16.828125 -9.1875 16.328125 -9.65625 C 15.835938 -10.132812 15.039062 -10.507812 13.9375 -10.78125 L 10.28125 -11.65625 C 7.539062 -12.3125 5.535156 -13.3125 4.265625 -14.65625 C 3.003906 -16 2.375 -17.707031 2.375 -19.78125 C 2.375 -21.507812 2.8125 -23.007812 3.6875 -24.28125 C 4.570312 -25.550781 5.8125 -26.519531 7.40625 -27.1875 C 9.007812 -27.851562 10.867188 -28.1875 12.984375 -28.1875 C 15.484375 -28.1875 17.550781 -27.828125 19.1875 -27.109375 C 20.820312 -26.390625 22.097656 -25.425781 23.015625 -24.21875 L 19.3125 -20.21875 L 18.8125 -20.21875 C 18.039062 -21.082031 17.171875 -21.710938 16.203125 -22.109375 C 15.242188 -22.515625 14.171875 -22.71875 12.984375 -22.71875 C 10.242188 -22.71875 8.875 -21.863281 8.875 -20.15625 C 8.875 -19.4375 9.128906 -18.851562 9.640625 -18.40625 C 10.148438 -17.957031 11.050781 -17.585938 12.34375 -17.296875 L 15.75 -16.546875 C 18.5625 -15.953125 20.613281 -14.988281 21.90625 -13.65625 C 23.195312 -12.320312 23.84375 -10.535156 23.84375 -8.296875 C 23.84375 -6.546875 23.40625 -5 22.53125 -3.65625 C 21.664062 -2.320312 20.414062 -1.289062 18.78125 -0.5625 C 17.144531 0.164062 15.195312 0.53125 12.9375 0.53125 Z M 12.9375 0.53125 "/></g></g></g><g fill="#ffffff" fill-opacity="1"><g transform="translate(413.403088, 198.807317)"><g><path d="M 12.9375 0.53125 C 11.050781 0.53125 9.320312 0.3125 7.75 -0.125 C 6.175781 -0.570312 4.832031 -1.1875 3.71875 -1.96875 C 2.613281 -2.75 1.789062 -3.640625 1.25 -4.640625 L 5.109375 -8.796875 L 5.640625 -8.796875 C 6.554688 -7.566406 7.640625 -6.640625 8.890625 -6.015625 C 10.148438 -5.398438 11.515625 -5.09375 12.984375 -5.09375 C 14.335938 -5.09375 15.359375 -5.332031 16.046875 -5.8125 C 16.734375 -6.300781 17.078125 -7 17.078125 -7.90625 C 17.078125 -8.601562 16.828125 -9.1875 16.328125 -9.65625 C 15.835938 -10.132812 15.039062 -10.507812 13.9375 -10.78125 L 10.28125 -11.65625 C 7.539062 -12.3125 5.535156 -13.3125 4.265625 -14.65625 C 3.003906 -16 2.375 -17.707031 2.375 -19.78125 C 2.375 -21.507812 2.8125 -23.007812 3.6875 -24.28125 C 4.570312 -25.550781 5.8125 -26.519531 7.40625 -27.1875 C 9.007812 -27.851562 10.867188 -28.1875 12.984375 -28.1875 C 15.484375 -28.1875 17.550781 -27.828125 19.1875 -27.109375 C 20.820312 -26.390625 22.097656 -25.425781 23.015625 -24.21875 L 19.3125 -20.21875 L 18.8125 -20.21875 C 18.039062 -21.082031 17.171875 -21.710938 16.203125 -22.109375 C 15.242188 -22.515625 14.171875 -22.71875 12.984375 -22.71875 C 10.242188 -22.71875 8.875 -21.863281 8.875 -20.15625 C 8.875 -19.4375 9.128906 -18.851562 9.640625 -18.40625 C 10.148438 -17.957031 11.050781 -17.585938 12.34375 -17.296875 L 15.75 -16.546875 C 18.5625 -15.953125 20.613281 -14.988281 21.90625 -13.65625 C 23.195312 -12.320312 23.84375 -10.535156 23.84375 -8.296875 C 23.84375 -6.546875 23.40625 -5 22.53125 -3.65625 C 21.664062 -2.320312 20.414062 -1.289062 18.78125 -0.5625 C 17.144531 0.164062 15.195312 0.53125 12.9375 0.53125 Z M 12.9375 0.53125 "/></g></g></g><g fill="#ffffff" fill-opacity="1"><g transform="translate(438.904709, 198.807317)"><g><path d="M 16.078125 0.53125 C 13.367188 0.53125 10.988281 -0.0234375 8.9375 -1.140625 C 6.894531 -2.253906 5.304688 -3.882812 4.171875 -6.03125 C 3.046875 -8.175781 2.484375 -10.769531 2.484375 -13.8125 C 2.484375 -16.851562 3.046875 -19.453125 4.171875 -21.609375 C 5.304688 -23.773438 6.894531 -25.410156 8.9375 -26.515625 C 10.988281 -27.628906 13.367188 -28.1875 16.078125 -28.1875 C 18.785156 -28.1875 21.160156 -27.628906 23.203125 -26.515625 C 25.253906 -25.410156 26.847656 -23.773438 27.984375 -21.609375 C 29.117188 -19.453125 29.6875 -16.851562 29.6875 -13.8125 C 29.6875 -10.769531 29.117188 -8.175781 27.984375 -6.03125 C 26.847656 -3.882812 25.253906 -2.253906 23.203125 -1.140625 C 21.160156 -0.0234375 18.785156 0.53125 16.078125 0.53125 Z M 16.078125 -5.359375 C 20.367188 -5.359375 22.515625 -8.175781 22.515625 -13.8125 C 22.515625 -16.738281 21.960938 -18.882812 20.859375 -20.25 C 19.753906 -21.613281 18.160156 -22.296875 16.078125 -22.296875 C 11.773438 -22.296875 9.625 -19.46875 9.625 -13.8125 C 9.625 -8.175781 11.773438 -5.359375 16.078125 -5.359375 Z M 16.078125 -5.359375 "/></g></g></g><g fill="#ffffff" fill-opacity="1"><g transform="translate(471.051296, 198.807317)"><g><path d="M 3.984375 0 L 3.984375 -27.65625 L 10.734375 -27.65625 L 10.734375 -23.546875 L 11.265625 -23.453125 C 11.929688 -24.984375 12.804688 -26.109375 13.890625 -26.828125 C 14.972656 -27.546875 16.296875 -27.90625 17.859375 -27.90625 C 19.429688 -27.90625 20.625 -27.640625 21.4375 -27.109375 L 20.265625 -21.109375 L 19.734375 -21.015625 C 19.285156 -21.203125 18.851562 -21.335938 18.4375 -21.421875 C 18.019531 -21.503906 17.507812 -21.546875 16.90625 -21.546875 C 14.96875 -21.546875 13.488281 -20.863281 12.46875 -19.5 C 11.445312 -18.132812 10.9375 -15.945312 10.9375 -12.9375 L 10.9375 0 Z M 3.984375 0 "/></g></g></g><g clip-path="url(#78a77077c9)"><path stroke-linecap="butt" transform="matrix(0.417115, 1.018599, -1.018599, 0.417115, 107.667167, 127.691964)" fill="none" stroke-linejoin="miter" d="M 0.000623149 4.501668 L 33.691172 4.49985 " stroke="#ffffff" stroke-width="9" stroke-opacity="1" stroke-miterlimit="4"/></g><path stroke-linecap="butt" transform="matrix(0.417115, 1.018599, -1.018599, 0.417115, 77.977832, 55.204074)" fill="none" stroke-linejoin="miter" d="M 0.000926093 4.499991 L 71.590579 4.501706 " stroke="#ffffff" stroke-width="9" stroke-opacity="1" stroke-miterlimit="4"/><g clip-path="url(#402dacbb11)"><path stroke-linecap="butt" transform="matrix(1.018599, -0.417115, 0.417115, 1.018599, 5.24946, 85.136235)" fill="none" stroke-linejoin="miter" d="M -0.00083594 4.498498 L 71.588817 4.500212 " stroke="#ffffff" stroke-width="9" stroke-opacity="1" stroke-miterlimit="4"/></g><g clip-path="url(#e37e8334e6)"><path stroke-linecap="butt" transform="matrix(-0.417115, -1.018599, 1.018599, -0.417115, 35.181665, 157.864579)" fill="none" stroke-linejoin="miter" d="M -0.000695771 4.499974 L 71.590302 4.498404 " stroke="#ffffff" stroke-width="9" stroke-opacity="1" stroke-miterlimit="4"/></g><g clip-path="url(#30bf9859f2)"><path stroke-linecap="butt" transform="matrix(-1.018599, 0.417115, -0.417115, -1.018599, 93.840566, 133.693809)" fill="none" stroke-linejoin="miter" d="M -0.0013429 4.500175 L 57.779563 4.499903 " stroke="#ffffff" stroke-width="9" stroke-opacity="1" stroke-miterlimit="4"/></g><g clip-path="url(#832091e726)"><path stroke-linecap="butt" transform="matrix(1.018599, -0.417115, 0.417115, 1.018599, 108.8858, 156.700555)" fill="none" stroke-linejoin="miter" d="M -0.00123577 4.500382 L 14.970732 4.499341 " stroke="#ffffff" stroke-width="9" stroke-opacity="1" stroke-miterlimit="4"/></g><g clip-path="url(#cace1005a1)"><path stroke-linecap="butt" transform="matrix(0.417115, 1.018599, -1.018599, 0.417115, 175.297064, 55.075535)" fill="none" stroke-linejoin="miter" d="M 0.00098962 4.498956 L 71.590642 4.500671 " stroke="#ffffff" stroke-width="9" stroke-opacity="1" stroke-miterlimit="4"/></g><path stroke-linecap="butt" transform="matrix(1.018599, -0.417115, 0.417115, 1.018599, 102.568691, 85.007708)" fill="none" stroke-linejoin="miter" d="M 0.000203926 4.498551 L 71.589856 4.500266 " stroke="#ffffff" stroke-width="9" stroke-opacity="1" stroke-miterlimit="4"/><path stroke-linecap="butt" transform="matrix(-0.417115, -1.018599, 1.018599, -0.417115, 132.500896, 157.736052)" fill="none" stroke-linejoin="miter" d="M -0.000749373 4.501014 L 71.590248 4.499444 " stroke="#ffffff" stroke-width="9" stroke-opacity="1" stroke-miterlimit="4"/><path stroke-linecap="butt" transform="matrix(-1.018599, 0.417115, -0.417115, -1.018599, 205.229269, 127.803879)" fill="none" stroke-linejoin="miter" d="M 0.0000859391 4.501441 L 57.777708 4.499824 " stroke="#ffffff" stroke-width="9" stroke-opacity="1" stroke-miterlimit="4"/><g clip-path="url(#c157fe0480)"><path stroke-linecap="butt" transform="matrix(0.417115, 1.018599, -1.018599, 0.417115, 141.375973, 153.259023)" fill="none" stroke-linejoin="miter" d="M 0.000808297 4.499652 L 33.5213 4.501058 " stroke="#ffffff" stroke-width="9" stroke-opacity="1" stroke-miterlimit="4"/></g></g></g></svg>