<svg xmlns="http://www.w3.org/2000/svg" xmlns:xlink="http://www.w3.org/1999/xlink" width="2000" zoomAndPan="magnify" viewBox="0 0 1500 449.999984" height="600" preserveAspectRatio="xMidYMid meet" version="1.0"><defs><g/></defs><rect x="-150" width="1800" fill="#ffffff" y="-44.999998" height="539.99998" fill-opacity="1"/><rect x="-150" width="1800" fill="#000000" y="-44.999998" height="539.99998" fill-opacity="1"/><g fill="#ffffff" fill-opacity="1"><g transform="translate(776.029071, 189.374985)"><g><path d="M 20.03125 -24.984375 L 20.03125 -20.828125 L 12.8125 -20.828125 L 12.8125 0 L 7.890625 0 L 7.890625 -20.828125 L 0.6875 -20.828125 L 0.6875 -24.984375 Z M 20.03125 -24.984375 "/></g></g></g><g fill="#ffffff" fill-opacity="1"><g transform="translate(796.737336, 189.374985)"><g><path d="M 2.71875 0 L 2.71875 -26.421875 L 7.453125 -26.421875 L 7.453125 -16.390625 L 7.8125 -16.328125 C 8.4375 -17.242188 9.203125 -17.953125 10.109375 -18.453125 C 11.023438 -18.953125 12.128906 -19.203125 13.421875 -19.203125 C 17.578125 -19.203125 19.65625 -16.847656 19.65625 -12.140625 L 19.65625 0 L 14.921875 0 L 14.921875 -11.53125 C 14.921875 -12.820312 14.660156 -13.753906 14.140625 -14.328125 C 13.628906 -14.910156 12.835938 -15.203125 11.765625 -15.203125 C 10.441406 -15.203125 9.390625 -14.757812 8.609375 -13.875 C 7.835938 -13 7.453125 -11.628906 7.453125 -9.765625 L 7.453125 0 Z M 2.71875 0 "/></g></g></g><g fill="#ffffff" fill-opacity="1"><g transform="translate(818.812484, 189.374985)"><g><path d="M 18.625 -8.359375 L 6.515625 -8.359375 C 6.648438 -6.710938 7.113281 -5.515625 7.90625 -4.765625 C 8.707031 -4.023438 9.796875 -3.65625 11.171875 -3.65625 C 12.253906 -3.65625 13.128906 -3.859375 13.796875 -4.265625 C 14.472656 -4.671875 15.019531 -5.28125 15.4375 -6.09375 L 15.796875 -6.09375 L 18.9375 -4.078125 C 18.320312 -2.765625 17.390625 -1.695312 16.140625 -0.875 C 14.898438 -0.0507812 13.242188 0.359375 11.171875 0.359375 C 9.222656 0.359375 7.539062 -0.0078125 6.125 -0.75 C 4.707031 -1.488281 3.613281 -2.585938 2.84375 -4.046875 C 2.070312 -5.515625 1.6875 -7.304688 1.6875 -9.421875 C 1.6875 -11.554688 2.09375 -13.359375 2.90625 -14.828125 C 3.71875 -16.296875 4.8125 -17.390625 6.1875 -18.109375 C 7.5625 -18.835938 9.109375 -19.203125 10.828125 -19.203125 C 13.492188 -19.203125 15.535156 -18.492188 16.953125 -17.078125 C 18.378906 -15.671875 19.09375 -13.601562 19.09375 -10.875 C 19.09375 -9.875 19.054688 -9.101562 18.984375 -8.5625 Z M 14.5625 -11.421875 C 14.519531 -12.847656 14.1875 -13.890625 13.5625 -14.546875 C 12.9375 -15.203125 12.023438 -15.53125 10.828125 -15.53125 C 8.441406 -15.53125 7.035156 -14.160156 6.609375 -11.421875 Z M 14.5625 -11.421875 "/></g></g></g><g fill="#ffffff" fill-opacity="1"><g transform="translate(776.029071, 238.124981)"><g><path d="M 19.859375 6.21875 C 17.660156 6.21875 15.832031 5.6875 14.375 4.625 C 12.925781 3.570312 11.953125 2.097656 11.453125 0.203125 C 9.546875 -0.0664062 7.882812 -0.710938 6.46875 -1.734375 C 5.050781 -2.753906 3.945312 -4.164062 3.15625 -5.96875 C 2.363281 -7.769531 1.96875 -9.945312 1.96875 -12.5 C 1.96875 -15.351562 2.460938 -17.738281 3.453125 -19.65625 C 4.441406 -21.582031 5.8125 -23.007812 7.5625 -23.9375 C 9.3125 -24.875 11.332031 -25.34375 13.625 -25.34375 C 15.914062 -25.34375 17.929688 -24.878906 19.671875 -23.953125 C 21.410156 -23.023438 22.769531 -21.597656 23.75 -19.671875 C 24.738281 -17.742188 25.234375 -15.351562 25.234375 -12.5 C 25.234375 -8.757812 24.429688 -5.890625 22.828125 -3.890625 C 21.234375 -1.890625 18.988281 -0.644531 16.09375 -0.15625 L 16.015625 0.1875 C 16.367188 0.789062 16.894531 1.253906 17.59375 1.578125 C 18.289062 1.898438 19.109375 2.0625 20.046875 2.0625 C 20.796875 2.0625 21.472656 1.96875 22.078125 1.78125 L 22.421875 1.84375 L 23.125 5.703125 C 22.757812 5.835938 22.269531 5.957031 21.65625 6.0625 C 21.039062 6.164062 20.441406 6.21875 19.859375 6.21875 Z M 13.625 -3.9375 C 15.738281 -3.9375 17.351562 -4.613281 18.46875 -5.96875 C 19.59375 -7.332031 20.15625 -9.507812 20.15625 -12.5 C 20.15625 -15.476562 19.59375 -17.648438 18.46875 -19.015625 C 17.351562 -20.390625 15.738281 -21.078125 13.625 -21.078125 C 11.488281 -21.078125 9.859375 -20.390625 8.734375 -19.015625 C 7.617188 -17.648438 7.0625 -15.476562 7.0625 -12.5 C 7.0625 -9.507812 7.617188 -7.332031 8.734375 -5.96875 C 9.859375 -4.613281 11.488281 -3.9375 13.625 -3.9375 Z M 13.625 -3.9375 "/></g></g></g><g fill="#ffffff" fill-opacity="1"><g transform="translate(803.247113, 238.124981)"><g><path d="M 8.625 0.359375 C 6.507812 0.359375 4.945312 -0.21875 3.9375 -1.375 C 2.925781 -2.53125 2.421875 -4.191406 2.421875 -6.359375 L 2.421875 -18.84375 L 7.15625 -18.84375 L 7.15625 -6.953125 C 7.15625 -5.804688 7.398438 -4.96875 7.890625 -4.4375 C 8.390625 -3.90625 9.160156 -3.640625 10.203125 -3.640625 C 11.515625 -3.640625 12.535156 -4.066406 13.265625 -4.921875 C 13.992188 -5.785156 14.359375 -7.140625 14.359375 -8.984375 L 14.359375 -18.84375 L 19.09375 -18.84375 L 19.09375 0 L 14.546875 0 L 14.546875 -2.765625 L 14.1875 -2.859375 C 13.582031 -1.773438 12.84375 -0.96875 11.96875 -0.4375 C 11.101562 0.09375 9.988281 0.359375 8.625 0.359375 Z M 8.625 0.359375 "/></g></g></g><g fill="#ffffff" fill-opacity="1"><g transform="translate(776.029071, 286.874978)"><g><path d="M 12.90625 -24.984375 C 14.695312 -24.984375 16.222656 -24.65625 17.484375 -24 C 18.753906 -23.34375 19.710938 -22.425781 20.359375 -21.25 C 21.015625 -20.070312 21.34375 -18.703125 21.34375 -17.140625 C 21.34375 -15.578125 21.015625 -14.207031 20.359375 -13.03125 C 19.710938 -11.863281 18.753906 -10.953125 17.484375 -10.296875 C 16.222656 -9.640625 14.695312 -9.3125 12.90625 -9.3125 L 8.1875 -9.3125 L 8.1875 0 L 3.25 0 L 3.25 -24.984375 Z M 12.25 -13.234375 C 15 -13.234375 16.375 -14.535156 16.375 -17.140625 C 16.375 -19.765625 15 -21.078125 12.25 -21.078125 L 8.1875 -21.078125 L 8.1875 -13.234375 Z M 12.25 -13.234375 "/></g></g></g><g fill="#ffffff" fill-opacity="1"><g transform="translate(798.360475, 286.874978)"><g><path d="M 2.71875 0 L 2.71875 -18.84375 L 7.3125 -18.84375 L 7.3125 -16.046875 L 7.671875 -15.984375 C 8.128906 -17.023438 8.726562 -17.789062 9.46875 -18.28125 C 10.207031 -18.769531 11.109375 -19.015625 12.171875 -19.015625 C 13.242188 -19.015625 14.054688 -18.832031 14.609375 -18.46875 L 13.8125 -14.390625 L 13.453125 -14.328125 C 13.140625 -14.453125 12.84375 -14.539062 12.5625 -14.59375 C 12.28125 -14.65625 11.929688 -14.6875 11.515625 -14.6875 C 10.191406 -14.6875 9.179688 -14.21875 8.484375 -13.28125 C 7.796875 -12.351562 7.453125 -10.863281 7.453125 -8.8125 L 7.453125 0 Z M 2.71875 0 "/></g></g></g><g fill="#ffffff" fill-opacity="1"><g transform="translate(812.64436, 286.874978)"><g><path d="M 10.953125 0.359375 C 9.109375 0.359375 7.488281 -0.0195312 6.09375 -0.78125 C 4.695312 -1.539062 3.613281 -2.648438 2.84375 -4.109375 C 2.070312 -5.578125 1.6875 -7.347656 1.6875 -9.421875 C 1.6875 -11.492188 2.070312 -13.265625 2.84375 -14.734375 C 3.613281 -16.203125 4.695312 -17.3125 6.09375 -18.0625 C 7.488281 -18.820312 9.109375 -19.203125 10.953125 -19.203125 C 12.796875 -19.203125 14.414062 -18.820312 15.8125 -18.0625 C 17.207031 -17.3125 18.289062 -16.203125 19.0625 -14.734375 C 19.84375 -13.265625 20.234375 -11.492188 20.234375 -9.421875 C 20.234375 -7.347656 19.84375 -5.578125 19.0625 -4.109375 C 18.289062 -2.648438 17.207031 -1.539062 15.8125 -0.78125 C 14.414062 -0.0195312 12.796875 0.359375 10.953125 0.359375 Z M 10.953125 -3.65625 C 13.878906 -3.65625 15.34375 -5.578125 15.34375 -9.421875 C 15.34375 -11.410156 14.96875 -12.867188 14.21875 -13.796875 C 13.46875 -14.722656 12.378906 -15.1875 10.953125 -15.1875 C 8.023438 -15.1875 6.5625 -13.265625 6.5625 -9.421875 C 6.5625 -5.578125 8.023438 -3.65625 10.953125 -3.65625 Z M 10.953125 -3.65625 "/></g></g></g><g fill="#ffffff" fill-opacity="1"><g transform="translate(834.548647, 286.874978)"><g><path d="M 10.984375 0.359375 C 9.160156 0.359375 7.546875 -0.0195312 6.140625 -0.78125 C 4.742188 -1.539062 3.648438 -2.65625 2.859375 -4.125 C 2.078125 -5.59375 1.6875 -7.359375 1.6875 -9.421875 C 1.6875 -11.492188 2.078125 -13.265625 2.859375 -14.734375 C 3.648438 -16.203125 4.738281 -17.3125 6.125 -18.0625 C 7.519531 -18.820312 9.113281 -19.203125 10.90625 -19.203125 C 14.882812 -19.203125 17.429688 -17.765625 18.546875 -14.890625 L 15.296875 -12.5625 L 14.9375 -12.5625 C 14.550781 -13.445312 14.046875 -14.101562 13.421875 -14.53125 C 12.804688 -14.96875 11.96875 -15.1875 10.90625 -15.1875 C 9.539062 -15.1875 8.472656 -14.710938 7.703125 -13.765625 C 6.941406 -12.828125 6.5625 -11.378906 6.5625 -9.421875 C 6.5625 -7.484375 6.945312 -6.035156 7.71875 -5.078125 C 8.5 -4.128906 9.585938 -3.65625 10.984375 -3.65625 C 12.015625 -3.65625 12.882812 -3.929688 13.59375 -4.484375 C 14.300781 -5.035156 14.8125 -5.832031 15.125 -6.875 L 15.484375 -6.90625 L 18.84375 -5.0625 C 18.363281 -3.46875 17.476562 -2.164062 16.1875 -1.15625 C 14.894531 -0.144531 13.160156 0.359375 10.984375 0.359375 Z M 10.984375 0.359375 "/></g></g></g><g fill="#ffffff" fill-opacity="1"><g transform="translate(853.975461, 286.874978)"><g><path d="M 18.625 -8.359375 L 6.515625 -8.359375 C 6.648438 -6.710938 7.113281 -5.515625 7.90625 -4.765625 C 8.707031 -4.023438 9.796875 -3.65625 11.171875 -3.65625 C 12.253906 -3.65625 13.128906 -3.859375 13.796875 -4.265625 C 14.472656 -4.671875 15.019531 -5.28125 15.4375 -6.09375 L 15.796875 -6.09375 L 18.9375 -4.078125 C 18.320312 -2.765625 17.390625 -1.695312 16.140625 -0.875 C 14.898438 -0.0507812 13.242188 0.359375 11.171875 0.359375 C 9.222656 0.359375 7.539062 -0.0078125 6.125 -0.75 C 4.707031 -1.488281 3.613281 -2.585938 2.84375 -4.046875 C 2.070312 -5.515625 1.6875 -7.304688 1.6875 -9.421875 C 1.6875 -11.554688 2.09375 -13.359375 2.90625 -14.828125 C 3.71875 -16.296875 4.8125 -17.390625 6.1875 -18.109375 C 7.5625 -18.835938 9.109375 -19.203125 10.828125 -19.203125 C 13.492188 -19.203125 15.535156 -18.492188 16.953125 -17.078125 C 18.378906 -15.671875 19.09375 -13.601562 19.09375 -10.875 C 19.09375 -9.875 19.054688 -9.101562 18.984375 -8.5625 Z M 14.5625 -11.421875 C 14.519531 -12.847656 14.1875 -13.890625 13.5625 -14.546875 C 12.9375 -15.203125 12.023438 -15.53125 10.828125 -15.53125 C 8.441406 -15.53125 7.035156 -14.160156 6.609375 -11.421875 Z M 14.5625 -11.421875 "/></g></g></g><g fill="#ffffff" fill-opacity="1"><g transform="translate(874.461608, 286.874978)"><g><path d="M 8.8125 0.359375 C 7.53125 0.359375 6.351562 0.207031 5.28125 -0.09375 C 4.207031 -0.394531 3.289062 -0.8125 2.53125 -1.34375 C 1.78125 -1.875 1.222656 -2.476562 0.859375 -3.15625 L 3.484375 -6 L 3.84375 -6 C 4.46875 -5.15625 5.207031 -4.519531 6.0625 -4.09375 C 6.914062 -3.675781 7.847656 -3.46875 8.859375 -3.46875 C 9.773438 -3.46875 10.46875 -3.628906 10.9375 -3.953125 C 11.40625 -4.285156 11.640625 -4.765625 11.640625 -5.390625 C 11.640625 -5.859375 11.46875 -6.253906 11.125 -6.578125 C 10.789062 -6.910156 10.25 -7.164062 9.5 -7.34375 L 7 -7.953125 C 5.132812 -8.390625 3.769531 -9.066406 2.90625 -9.984375 C 2.050781 -10.898438 1.625 -12.066406 1.625 -13.484375 C 1.625 -14.660156 1.921875 -15.679688 2.515625 -16.546875 C 3.117188 -17.410156 3.960938 -18.066406 5.046875 -18.515625 C 6.140625 -18.972656 7.410156 -19.203125 8.859375 -19.203125 C 10.554688 -19.203125 11.960938 -18.957031 13.078125 -18.46875 C 14.191406 -17.976562 15.0625 -17.328125 15.6875 -16.515625 L 13.15625 -13.78125 L 12.8125 -13.78125 C 12.289062 -14.363281 11.703125 -14.789062 11.046875 -15.0625 C 10.390625 -15.34375 9.660156 -15.484375 8.859375 -15.484375 C 6.984375 -15.484375 6.046875 -14.898438 6.046875 -13.734375 C 6.046875 -13.242188 6.21875 -12.84375 6.5625 -12.53125 C 6.914062 -12.226562 7.53125 -11.984375 8.40625 -11.796875 L 10.734375 -11.28125 C 12.648438 -10.875 14.046875 -10.21875 14.921875 -9.3125 C 15.804688 -8.40625 16.25 -7.1875 16.25 -5.65625 C 16.25 -4.457031 15.953125 -3.398438 15.359375 -2.484375 C 14.765625 -1.578125 13.910156 -0.875 12.796875 -0.375 C 11.679688 0.113281 10.351562 0.359375 8.8125 0.359375 Z M 8.8125 0.359375 "/></g></g></g><g fill="#ffffff" fill-opacity="1"><g transform="translate(891.838098, 286.874978)"><g><path d="M 8.8125 0.359375 C 7.53125 0.359375 6.351562 0.207031 5.28125 -0.09375 C 4.207031 -0.394531 3.289062 -0.8125 2.53125 -1.34375 C 1.78125 -1.875 1.222656 -2.476562 0.859375 -3.15625 L 3.484375 -6 L 3.84375 -6 C 4.46875 -5.15625 5.207031 -4.519531 6.0625 -4.09375 C 6.914062 -3.675781 7.847656 -3.46875 8.859375 -3.46875 C 9.773438 -3.46875 10.46875 -3.628906 10.9375 -3.953125 C 11.40625 -4.285156 11.640625 -4.765625 11.640625 -5.390625 C 11.640625 -5.859375 11.46875 -6.253906 11.125 -6.578125 C 10.789062 -6.910156 10.25 -7.164062 9.5 -7.34375 L 7 -7.953125 C 5.132812 -8.390625 3.769531 -9.066406 2.90625 -9.984375 C 2.050781 -10.898438 1.625 -12.066406 1.625 -13.484375 C 1.625 -14.660156 1.921875 -15.679688 2.515625 -16.546875 C 3.117188 -17.410156 3.960938 -18.066406 5.046875 -18.515625 C 6.140625 -18.972656 7.410156 -19.203125 8.859375 -19.203125 C 10.554688 -19.203125 11.960938 -18.957031 13.078125 -18.46875 C 14.191406 -17.976562 15.0625 -17.328125 15.6875 -16.515625 L 13.15625 -13.78125 L 12.8125 -13.78125 C 12.289062 -14.363281 11.703125 -14.789062 11.046875 -15.0625 C 10.390625 -15.34375 9.660156 -15.484375 8.859375 -15.484375 C 6.984375 -15.484375 6.046875 -14.898438 6.046875 -13.734375 C 6.046875 -13.242188 6.21875 -12.84375 6.5625 -12.53125 C 6.914062 -12.226562 7.53125 -11.984375 8.40625 -11.796875 L 10.734375 -11.28125 C 12.648438 -10.875 14.046875 -10.21875 14.921875 -9.3125 C 15.804688 -8.40625 16.25 -7.1875 16.25 -5.65625 C 16.25 -4.457031 15.953125 -3.398438 15.359375 -2.484375 C 14.765625 -1.578125 13.910156 -0.875 12.796875 -0.375 C 11.679688 0.113281 10.351562 0.359375 8.8125 0.359375 Z M 8.8125 0.359375 "/></g></g></g><g fill="#ffffff" fill-opacity="1"><g transform="translate(909.214588, 286.874978)"><g><path d="M 10.953125 0.359375 C 9.109375 0.359375 7.488281 -0.0195312 6.09375 -0.78125 C 4.695312 -1.539062 3.613281 -2.648438 2.84375 -4.109375 C 2.070312 -5.578125 1.6875 -7.347656 1.6875 -9.421875 C 1.6875 -11.492188 2.070312 -13.265625 2.84375 -14.734375 C 3.613281 -16.203125 4.695312 -17.3125 6.09375 -18.0625 C 7.488281 -18.820312 9.109375 -19.203125 10.953125 -19.203125 C 12.796875 -19.203125 14.414062 -18.820312 15.8125 -18.0625 C 17.207031 -17.3125 18.289062 -16.203125 19.0625 -14.734375 C 19.84375 -13.265625 20.234375 -11.492188 20.234375 -9.421875 C 20.234375 -7.347656 19.84375 -5.578125 19.0625 -4.109375 C 18.289062 -2.648438 17.207031 -1.539062 15.8125 -0.78125 C 14.414062 -0.0195312 12.796875 0.359375 10.953125 0.359375 Z M 10.953125 -3.65625 C 13.878906 -3.65625 15.34375 -5.578125 15.34375 -9.421875 C 15.34375 -11.410156 14.96875 -12.867188 14.21875 -13.796875 C 13.46875 -14.722656 12.378906 -15.1875 10.953125 -15.1875 C 8.023438 -15.1875 6.5625 -13.265625 6.5625 -9.421875 C 6.5625 -5.578125 8.023438 -3.65625 10.953125 -3.65625 Z M 10.953125 -3.65625 "/></g></g></g><g fill="#ffffff" fill-opacity="1"><g transform="translate(931.118875, 286.874978)"><g><path d="M 2.71875 0 L 2.71875 -18.84375 L 7.3125 -18.84375 L 7.3125 -16.046875 L 7.671875 -15.984375 C 8.128906 -17.023438 8.726562 -17.789062 9.46875 -18.28125 C 10.207031 -18.769531 11.109375 -19.015625 12.171875 -19.015625 C 13.242188 -19.015625 14.054688 -18.832031 14.609375 -18.46875 L 13.8125 -14.390625 L 13.453125 -14.328125 C 13.140625 -14.453125 12.84375 -14.539062 12.5625 -14.59375 C 12.28125 -14.65625 11.929688 -14.6875 11.515625 -14.6875 C 10.191406 -14.6875 9.179688 -14.21875 8.484375 -13.28125 C 7.796875 -12.351562 7.453125 -10.863281 7.453125 -8.8125 L 7.453125 0 Z M 2.71875 0 "/></g></g></g><path stroke-linecap="butt" transform="matrix(0.284217, 0.694061, -0.694061, 0.284217, 683.513422, 238.417863)" fill="none" stroke-linejoin="miter" d="M -0.00164319 4.498639 L 33.687701 4.499888 " stroke="#ffffff" stroke-width="9" stroke-opacity="1" stroke-miterlimit="4"/><path stroke-linecap="butt" transform="matrix(0.284217, 0.694061, -0.694061, 0.284217, 663.283464, 189.025502)" fill="none" stroke-linejoin="miter" d="M 0.000240926 4.500146 L 71.590125 4.499294 " stroke="#ffffff" stroke-width="9" stroke-opacity="1" stroke-miterlimit="4"/><path stroke-linecap="butt" transform="matrix(0.694061, -0.284217, 0.284217, 0.694061, 613.727259, 209.420916)" fill="none" stroke-linejoin="miter" d="M 0.00256264 4.499289 L 71.592447 4.498436 " stroke="#ffffff" stroke-width="9" stroke-opacity="1" stroke-miterlimit="4"/><path stroke-linecap="butt" transform="matrix(-0.284217, -0.694061, 0.694061, -0.284217, 634.122698, 258.977118)" fill="none" stroke-linejoin="miter" d="M -0.00139061 4.499606 L 71.588494 4.498753 " stroke="#ffffff" stroke-width="9" stroke-opacity="1" stroke-miterlimit="4"/><path stroke-linecap="butt" transform="matrix(-0.694061, 0.284217, -0.284217, -0.694061, 674.092175, 242.507456)" fill="none" stroke-linejoin="miter" d="M 0.000169667 4.502042 L 57.778499 4.501624 " stroke="#ffffff" stroke-width="9" stroke-opacity="1" stroke-miterlimit="4"/><path stroke-linecap="butt" transform="matrix(0.694061, -0.284217, 0.284217, 0.694061, 684.343798, 258.183964)" fill="none" stroke-linejoin="miter" d="M -0.00275883 4.500823 L 14.974276 4.499262 " stroke="#ffffff" stroke-width="9" stroke-opacity="1" stroke-miterlimit="4"/><path stroke-linecap="butt" transform="matrix(0.284217, 0.694061, -0.694061, 0.284217, 729.595626, 188.937904)" fill="none" stroke-linejoin="miter" d="M 0.00245965 4.500569 L 71.592344 4.499716 " stroke="#ffffff" stroke-width="9" stroke-opacity="1" stroke-miterlimit="4"/><path stroke-linecap="butt" transform="matrix(0.694061, -0.284217, 0.284217, 0.694061, 680.039398, 209.333319)" fill="none" stroke-linejoin="miter" d="M 0.00216948 4.50152 L 71.592054 4.500667 " stroke="#ffffff" stroke-width="9" stroke-opacity="1" stroke-miterlimit="4"/><path stroke-linecap="butt" transform="matrix(-0.284217, -0.694061, 0.694061, -0.284217, 700.434813, 258.889521)" fill="none" stroke-linejoin="miter" d="M 0.00118628 4.501216 L 71.591071 4.500363 " stroke="#ffffff" stroke-width="9" stroke-opacity="1" stroke-miterlimit="4"/><path stroke-linecap="butt" transform="matrix(-0.694061, 0.284217, -0.284217, -0.694061, 749.991065, 238.494092)" fill="none" stroke-linejoin="miter" d="M 0.00155926 4.500241 L 57.779888 4.499823 " stroke="#ffffff" stroke-width="9" stroke-opacity="1" stroke-miterlimit="4"/><path stroke-linecap="butt" transform="matrix(0.284217, 0.694061, -0.694061, 0.284217, 706.482212, 255.838926)" fill="none" stroke-linejoin="miter" d="M -0.000662136 4.499099 L 33.520401 4.498974 " stroke="#ffffff" stroke-width="9" stroke-opacity="1" stroke-miterlimit="4"/></svg>