<svg xmlns="http://www.w3.org/2000/svg" xmlns:xlink="http://www.w3.org/1999/xlink" width="2000" zoomAndPan="magnify" viewBox="0 0 1500 599.999999" height="800" preserveAspectRatio="xMidYMid meet" version="1.2"><defs><clipPath id="71e96d7a00"><path d="M 524 214 L 645 214 L 645 344 L 524 344 Z M 524 214 "/></clipPath><clipPath id="a3f82658fd"><path d="M 494.542969 296.4375 L 588.507812 184.367188 L 644.253906 231.113281 L 550.289062 343.179688 Z M 494.542969 296.4375 "/></clipPath><clipPath id="bb0a89d615"><path d="M 494.542969 296.4375 L 588.507812 184.367188 L 644.253906 231.113281 L 550.289062 343.179688 Z M 494.542969 296.4375 "/></clipPath><clipPath id="0763efa4db"><path d="M 494.542969 296.4375 L 588.507812 184.367188 L 644.253906 231.113281 L 550.289062 343.179688 Z M 494.542969 296.4375 "/></clipPath><clipPath id="090de6d7db"><path d="M 524 214 L 671 214 L 671 294 L 524 294 Z M 524 214 "/></clipPath><clipPath id="e41380ee9f"><path d="M 518.386719 220.957031 L 664.074219 208.15625 L 670.441406 280.628906 L 524.753906 293.425781 Z M 518.386719 220.957031 "/></clipPath><clipPath id="0e6703bf83"><path d="M 518.386719 220.957031 L 664.074219 208.15625 L 670.441406 280.628906 L 524.753906 293.425781 Z M 518.386719 220.957031 "/></clipPath><clipPath id="f6831d95a1"><path d="M 518.386719 220.957031 L 664.074219 208.15625 L 670.441406 280.628906 L 524.753906 293.425781 Z M 518.386719 220.957031 "/></clipPath><clipPath id="d8a22bafda"><path d="M 555 271 L 701 271 L 701 416 L 555 416 Z M 555 271 "/></clipPath><clipPath id="297ed98d81"><path d="M 555.96875 351.871094 L 619.597656 271.191406 L 700.273438 334.820312 L 636.644531 415.5 Z M 555.96875 351.871094 "/></clipPath><clipPath id="519fb1c354"><path d="M 619.554688 271.246094 L 555.921875 351.925781 L 636.601562 415.554688 L 700.230469 334.878906 Z M 619.554688 271.246094 "/></clipPath><clipPath id="6056ae839d"><path d="M 619.554688 271.246094 L 555.921875 351.925781 L 636.601562 415.554688 L 700.230469 334.878906 Z M 619.554688 271.246094 "/></clipPath><clipPath id="614c624253"><path d="M 574 271 L 701 271 L 701 416 L 574 416 Z M 574 271 "/></clipPath><clipPath id="53a9123dc1"><path d="M 555.96875 351.871094 L 619.597656 271.191406 L 700.273438 334.820312 L 636.644531 415.5 Z M 555.96875 351.871094 "/></clipPath><clipPath id="d1e8c8424d"><path d="M 619.554688 271.246094 L 555.921875 351.925781 L 636.601562 415.554688 L 700.230469 334.878906 Z M 619.554688 271.246094 "/></clipPath><clipPath id="62e8526817"><path d="M 619.554688 271.246094 L 555.921875 351.925781 L 636.601562 415.554688 L 700.230469 334.878906 Z M 619.554688 271.246094 "/></clipPath><clipPath id="032a5e5691"><path d="M 558 271 L 701 271 L 701 416 L 558 416 Z M 558 271 "/></clipPath><clipPath id="3a310bf5ae"><path d="M 555.96875 351.871094 L 619.597656 271.191406 L 700.273438 334.820312 L 636.644531 415.5 Z M 555.96875 351.871094 "/></clipPath><clipPath id="c0d86f9e4d"><path d="M 619.554688 271.246094 L 555.921875 351.925781 L 636.601562 415.554688 L 700.230469 334.878906 Z M 619.554688 271.246094 "/></clipPath><clipPath id="51c21feb48"><path d="M 619.554688 271.246094 L 555.921875 351.925781 L 636.601562 415.554688 L 700.230469 334.878906 Z M 619.554688 271.246094 "/></clipPath><clipPath id="b3bbd203f0"><path d="M 555 271 L 701 271 L 701 416 L 555 416 Z M 555 271 "/></clipPath><clipPath id="2ff502d426"><path d="M 555.96875 351.871094 L 619.597656 271.191406 L 700.273438 334.820312 L 636.644531 415.5 Z M 555.96875 351.871094 "/></clipPath><clipPath id="ef93e8ce25"><path d="M 619.554688 271.246094 L 555.921875 351.925781 L 636.601562 415.554688 L 700.230469 334.878906 Z M 619.554688 271.246094 "/></clipPath><clipPath id="fcfc403905"><path d="M 619.554688 271.246094 L 555.921875 351.925781 L 636.601562 415.554688 L 700.230469 334.878906 Z M 619.554688 271.246094 "/></clipPath><clipPath id="ebbd4c084f"><path d="M 555 271 L 701 271 L 701 409 L 555 409 Z M 555 271 "/></clipPath><clipPath id="9bb6edd842"><path d="M 555.96875 351.871094 L 619.597656 271.191406 L 700.273438 334.820312 L 636.644531 415.5 Z M 555.96875 351.871094 "/></clipPath><clipPath id="3c64c931f4"><path d="M 619.554688 271.246094 L 555.921875 351.925781 L 636.601562 415.554688 L 700.230469 334.878906 Z M 619.554688 271.246094 "/></clipPath><clipPath id="1c80d9eeba"><path d="M 619.554688 271.246094 L 555.921875 351.925781 L 636.601562 415.554688 L 700.230469 334.878906 Z M 619.554688 271.246094 "/></clipPath><clipPath id="074cd6b3a3"><path d="M 555 271 L 701 271 L 701 416 L 555 416 Z M 555 271 "/></clipPath><clipPath id="b019213902"><path d="M 555.96875 351.871094 L 619.597656 271.191406 L 700.273438 334.820312 L 636.644531 415.5 Z M 555.96875 351.871094 "/></clipPath><clipPath id="eab6a7036b"><path d="M 619.554688 271.246094 L 555.921875 351.925781 L 636.601562 415.554688 L 700.230469 334.878906 Z M 619.554688 271.246094 "/></clipPath><clipPath id="50200d3ea4"><path d="M 619.554688 271.246094 L 555.921875 351.925781 L 636.601562 415.554688 L 700.230469 334.878906 Z M 619.554688 271.246094 "/></clipPath><clipPath id="062da61145"><path d="M 555 271 L 701 271 L 701 397 L 555 397 Z M 555 271 "/></clipPath><clipPath id="20799377e4"><path d="M 555.96875 351.871094 L 619.597656 271.191406 L 700.273438 334.820312 L 636.644531 415.5 Z M 555.96875 351.871094 "/></clipPath><clipPath id="1c419cab8a"><path d="M 619.554688 271.246094 L 555.921875 351.925781 L 636.601562 415.554688 L 700.230469 334.878906 Z M 619.554688 271.246094 "/></clipPath><clipPath id="521569d771"><path d="M 619.554688 271.246094 L 555.921875 351.925781 L 636.601562 415.554688 L 700.230469 334.878906 Z M 619.554688 271.246094 "/></clipPath><clipPath id="676b4801ff"><path d="M 562 336 L 587 336 L 587 362 L 562 362 Z M 562 336 "/></clipPath><clipPath id="985ea0d1dd"><path d="M 555.96875 351.871094 L 619.597656 271.191406 L 700.273438 334.820312 L 636.644531 415.5 Z M 555.96875 351.871094 "/></clipPath><clipPath id="238a77bb3f"><path d="M 619.554688 271.246094 L 555.921875 351.925781 L 636.601562 415.554688 L 700.230469 334.878906 Z M 619.554688 271.246094 "/></clipPath><clipPath id="2c79a929c2"><path d="M 619.554688 271.246094 L 555.921875 351.925781 L 636.601562 415.554688 L 700.230469 334.878906 Z M 619.554688 271.246094 "/></clipPath><clipPath id="65ccc9149c"><path d="M 582 337 L 613 337 L 613 368 L 582 368 Z M 582 337 "/></clipPath><clipPath id="3d4dceda41"><path d="M 555.96875 351.871094 L 619.597656 271.191406 L 700.273438 334.820312 L 636.644531 415.5 Z M 555.96875 351.871094 "/></clipPath><clipPath id="402e01d9ac"><path d="M 619.554688 271.246094 L 555.921875 351.925781 L 636.601562 415.554688 L 700.230469 334.878906 Z M 619.554688 271.246094 "/></clipPath><clipPath id="0b2738dddb"><path d="M 619.554688 271.246094 L 555.921875 351.925781 L 636.601562 415.554688 L 700.230469 334.878906 Z M 619.554688 271.246094 "/></clipPath><clipPath id="387adec9b3"><path d="M 638 330 L 667 330 L 667 362 L 638 362 Z M 638 330 "/></clipPath><clipPath id="71f8fc8f1b"><path d="M 555.96875 351.871094 L 619.597656 271.191406 L 700.273438 334.820312 L 636.644531 415.5 Z M 555.96875 351.871094 "/></clipPath><clipPath id="3d67437458"><path d="M 619.554688 271.246094 L 555.921875 351.925781 L 636.601562 415.554688 L 700.230469 334.878906 Z M 619.554688 271.246094 "/></clipPath><clipPath id="55efcd210a"><path d="M 619.554688 271.246094 L 555.921875 351.925781 L 636.601562 415.554688 L 700.230469 334.878906 Z M 619.554688 271.246094 "/></clipPath><clipPath id="a533148e6a"><path d="M 634 315 L 654 315 L 654 334 L 634 334 Z M 634 315 "/></clipPath><clipPath id="0b6380e77f"><path d="M 555.96875 351.871094 L 619.597656 271.191406 L 700.273438 334.820312 L 636.644531 415.5 Z M 555.96875 351.871094 "/></clipPath><clipPath id="438f55edb4"><path d="M 619.554688 271.246094 L 555.921875 351.925781 L 636.601562 415.554688 L 700.230469 334.878906 Z M 619.554688 271.246094 "/></clipPath><clipPath id="2e7919c1e2"><path d="M 619.554688 271.246094 L 555.921875 351.925781 L 636.601562 415.554688 L 700.230469 334.878906 Z M 619.554688 271.246094 "/></clipPath><clipPath id="8bfca373ea"><path d="M 555 271 L 701 271 L 701 416 L 555 416 Z M 555 271 "/></clipPath><clipPath id="22c033eff4"><path d="M 555.96875 351.871094 L 619.597656 271.191406 L 700.273438 334.820312 L 636.644531 415.5 Z M 555.96875 351.871094 "/></clipPath><clipPath id="aaac2a855c"><path d="M 619.554688 271.246094 L 555.921875 351.925781 L 636.601562 415.554688 L 700.230469 334.878906 Z M 619.554688 271.246094 "/></clipPath><clipPath id="e139d9607c"><path d="M 619.554688 271.246094 L 555.921875 351.925781 L 636.601562 415.554688 L 700.230469 334.878906 Z M 619.554688 271.246094 "/></clipPath></defs><g id="dbe8f2ede8"><rect x="0" width="1500" y="0" height="599.999999" style="fill:#ffffff;fill-opacity:1;stroke:none;"/><rect x="0" width="1500" y="0" height="599.999999" style="fill:#ffffff;fill-opacity:1;stroke:none;"/><g clip-rule="nonzero" clip-path="url(#71e96d7a00)"><g clip-rule="nonzero" clip-path="url(#a3f82658fd)"><g clip-rule="nonzero" clip-path="url(#bb0a89d615)"><g clip-rule="nonzero" clip-path="url(#0763efa4db)"><path style=" stroke:none;fill-rule:nonzero;fill:#000000;fill-opacity:1;" d="M 644.253906 231.117188 L 635.335938 241.75 C 610.429688 220.871094 573.09375 224.246094 552.105469 249.273438 C 531.121094 274.304688 534.304688 311.65625 559.210938 332.539062 L 550.292969 343.175781 C 519.554688 317.402344 515.621094 271.296875 541.527344 240.402344 C 567.429688 209.507812 613.511719 205.34375 644.253906 231.117188 Z M 644.253906 231.117188 "/></g></g></g></g><g clip-rule="nonzero" clip-path="url(#090de6d7db)"><g clip-rule="nonzero" clip-path="url(#e41380ee9f)"><g clip-rule="nonzero" clip-path="url(#0e6703bf83)"><g clip-rule="nonzero" clip-path="url(#f6831d95a1)"><path style=" stroke:none;fill-rule:nonzero;fill:#000000;fill-opacity:1;" d="M 670.4375 280.628906 L 656.609375 281.84375 C 653.765625 249.464844 624.980469 225.453125 592.4375 228.3125 C 559.898438 231.171875 535.742188 259.835938 538.585938 292.210938 L 524.757812 293.425781 C 521.246094 253.464844 551.066406 218.085938 591.230469 214.554688 C 631.394531 211.027344 666.925781 240.667969 670.4375 280.628906 Z M 670.4375 280.628906 "/></g></g></g></g><g clip-rule="nonzero" clip-path="url(#d8a22bafda)"><g clip-rule="nonzero" clip-path="url(#297ed98d81)"><g clip-rule="nonzero" clip-path="url(#519fb1c354)"><g clip-rule="nonzero" clip-path="url(#6056ae839d)"><path style="fill:none;stroke-width:2;stroke-linecap:butt;stroke-linejoin:miter;stroke:#000000;stroke-opacity:1;stroke-miterlimit:10;" d="M 9.000183 0.000174508 L 9.000345 25.999756 " transform="matrix(-2.447286,3.10298,3.10298,2.447286,619.552822,271.247968)"/><path style="fill:none;stroke-width:2;stroke-linecap:butt;stroke-linejoin:miter;stroke:#000000;stroke-opacity:1;stroke-miterlimit:10;" d="M 24.000099 -0.000424366 C 24.000261 13.000061 9.000108 13.099923 9.000345 25.999756 " transform="matrix(-2.447286,3.10298,3.10298,2.447286,619.552822,271.247968)"/><path style="fill:none;stroke-width:2;stroke-linecap:butt;stroke-linejoin:miter;stroke:#000000;stroke-opacity:1;stroke-miterlimit:10;" d="M 1.999542 0.000252873 L 1.999703 25.999835 " transform="matrix(-2.447286,3.10298,3.10298,2.447286,619.552822,271.247968)"/><path style="fill:none;stroke-width:2;stroke-linecap:butt;stroke-linejoin:miter;stroke:#000000;stroke-opacity:1;stroke-miterlimit:10;" d="M 4.000256 23.000395 L 11.000121 22.999704 " transform="matrix(-2.447286,3.10298,3.10298,2.447286,619.552822,271.247968)"/><path style="fill:none;stroke-width:2;stroke-linecap:butt;stroke-linejoin:miter;stroke:#000000;stroke-opacity:1;stroke-miterlimit:10;" d="M 10.999776 13.000223 L 19.999848 12.999709 " transform="matrix(-2.447286,3.10298,3.10298,2.447286,619.552822,271.247968)"/></g></g></g></g><g clip-rule="nonzero" clip-path="url(#614c624253)"><g clip-rule="nonzero" clip-path="url(#53a9123dc1)"><g clip-rule="nonzero" clip-path="url(#d1e8c8424d)"><g clip-rule="nonzero" clip-path="url(#62e8526817)"><path style="fill:none;stroke-width:2;stroke-linecap:butt;stroke-linejoin:miter;stroke:#000000;stroke-opacity:1;stroke-miterlimit:10;" d="M -0.000157307 23.000043 L 2.000049 23.000219 " transform="matrix(-2.447286,3.10298,3.10298,2.447286,619.552822,271.247968)"/></g></g></g></g><g clip-rule="nonzero" clip-path="url(#032a5e5691)"><g clip-rule="nonzero" clip-path="url(#3a310bf5ae)"><g clip-rule="nonzero" clip-path="url(#c0d86f9e4d)"><g clip-rule="nonzero" clip-path="url(#51c21feb48)"><path style="fill:none;stroke-width:2;stroke-linecap:butt;stroke-linejoin:miter;stroke:#000000;stroke-opacity:1;stroke-miterlimit:10;" d="M 0.000364509 18.00022 L 1.999795 17.999784 " transform="matrix(-2.447286,3.10298,3.10298,2.447286,619.552822,271.247968)"/></g></g></g></g><g clip-rule="nonzero" clip-path="url(#b3bbd203f0)"><g clip-rule="nonzero" clip-path="url(#2ff502d426)"><g clip-rule="nonzero" clip-path="url(#ef93e8ce25)"><g clip-rule="nonzero" clip-path="url(#fcfc403905)"><path style="fill:none;stroke-width:2;stroke-linecap:butt;stroke-linejoin:miter;stroke:#000000;stroke-opacity:1;stroke-miterlimit:10;" d="M 0.000110218 12.999786 L 2.000317 12.999962 " transform="matrix(-2.447286,3.10298,3.10298,2.447286,619.552822,271.247968)"/><path style="fill:none;stroke-width:2;stroke-linecap:butt;stroke-linejoin:miter;stroke:#000000;stroke-opacity:1;stroke-miterlimit:10;" d="M 4.000269 7.999703 L 9.400533 8.000072 " transform="matrix(-2.447286,3.10298,3.10298,2.447286,619.552822,271.247968)"/></g></g></g></g><g clip-rule="nonzero" clip-path="url(#ebbd4c084f)"><g clip-rule="nonzero" clip-path="url(#9bb6edd842)"><g clip-rule="nonzero" clip-path="url(#3c64c931f4)"><g clip-rule="nonzero" clip-path="url(#1c80d9eeba)"><path style="fill:none;stroke-width:2;stroke-linecap:butt;stroke-linejoin:miter;stroke:#000000;stroke-opacity:1;stroke-miterlimit:10;" d="M 0.000632035 7.999963 L 2.000063 7.999527 " transform="matrix(-2.447286,3.10298,3.10298,2.447286,619.552822,271.247968)"/></g></g></g></g><g clip-rule="nonzero" clip-path="url(#074cd6b3a3)"><g clip-rule="nonzero" clip-path="url(#b019213902)"><g clip-rule="nonzero" clip-path="url(#eab6a7036b)"><g clip-rule="nonzero" clip-path="url(#50200d3ea4)"><path style="fill:none;stroke-width:2;stroke-linecap:butt;stroke-linejoin:miter;stroke:#000000;stroke-opacity:1;stroke-miterlimit:10;" d="M 3.999403 3.000045 L 11.000044 2.999966 " transform="matrix(-2.447286,3.10298,3.10298,2.447286,619.552822,271.247968)"/></g></g></g></g><g clip-rule="nonzero" clip-path="url(#062da61145)"><g clip-rule="nonzero" clip-path="url(#20799377e4)"><g clip-rule="nonzero" clip-path="url(#1c419cab8a)"><g clip-rule="nonzero" clip-path="url(#521569d771)"><path style="fill:none;stroke-width:2;stroke-linecap:butt;stroke-linejoin:miter;stroke:#000000;stroke-opacity:1;stroke-miterlimit:10;" d="M -0.000234364 3.000305 L 1.999972 3.000481 " transform="matrix(-2.447286,3.10298,3.10298,2.447286,619.552822,271.247968)"/></g></g></g></g><g clip-rule="nonzero" clip-path="url(#676b4801ff)"><g clip-rule="nonzero" clip-path="url(#985ea0d1dd)"><g clip-rule="nonzero" clip-path="url(#238a77bb3f)"><g clip-rule="nonzero" clip-path="url(#2c79a929c2)"><path style=" stroke:none;fill-rule:nonzero;fill:#000000;fill-opacity:1;" d="M 578.28125 336.339844 C 581.875 338.167969 586.691406 338.441406 586.691406 338.441406 L 568.335938 361.714844 L 562.128906 356.820312 Z M 578.28125 336.339844 "/></g></g></g></g><g clip-rule="nonzero" clip-path="url(#65ccc9149c)"><g clip-rule="nonzero" clip-path="url(#3d4dceda41)"><g clip-rule="nonzero" clip-path="url(#402e01d9ac)"><g clip-rule="nonzero" clip-path="url(#0b2738dddb)"><path style=" stroke:none;fill-rule:nonzero;fill:#000000;fill-opacity:1;" d="M 600.894531 339.578125 C 605.953125 339.542969 612.238281 337.957031 612.238281 337.957031 L 588.746094 367.746094 L 582.539062 362.851562 Z M 600.894531 339.578125 "/></g></g></g></g><g clip-rule="nonzero" clip-path="url(#387adec9b3)"><g clip-rule="nonzero" clip-path="url(#71f8fc8f1b)"><g clip-rule="nonzero" clip-path="url(#3d67437458)"><g clip-rule="nonzero" clip-path="url(#55efcd210a)"><path style=" stroke:none;fill-rule:nonzero;fill:#000000;fill-opacity:1;" d="M 658.109375 330.847656 C 661.4375 330.457031 666.519531 332.949219 666.519531 332.949219 L 644.246094 361.1875 L 638.042969 356.292969 Z M 658.109375 330.847656 "/></g></g></g></g><g clip-rule="nonzero" clip-path="url(#a533148e6a)"><g clip-rule="nonzero" clip-path="url(#0b6380e77f)"><g clip-rule="nonzero" clip-path="url(#438f55edb4)"><g clip-rule="nonzero" clip-path="url(#2e7919c1e2)"><path style=" stroke:none;fill-rule:nonzero;fill:#000000;fill-opacity:1;" d="M 645.042969 315.507812 C 648.371094 315.117188 653.449219 317.613281 653.449219 317.613281 L 640.96875 333.4375 L 634.761719 328.542969 Z M 645.042969 315.507812 "/></g></g></g></g><g clip-rule="nonzero" clip-path="url(#8bfca373ea)"><g clip-rule="nonzero" clip-path="url(#22c033eff4)"><g clip-rule="nonzero" clip-path="url(#aaac2a855c)"><g clip-rule="nonzero" clip-path="url(#e139d9607c)"><path style="fill:none;stroke-width:2;stroke-linecap:butt;stroke-linejoin:miter;stroke:#000000;stroke-opacity:1;stroke-miterlimit:10;" d="M 13.99966 3.000312 L 15.999866 3.000488 " transform="matrix(-2.447286,3.10298,3.10298,2.447286,619.552822,271.247968)"/><path style="fill:none;stroke-width:2;stroke-linecap:butt;stroke-linejoin:miter;stroke:#000000;stroke-opacity:1;stroke-miterlimit:10;" d="M 17.000234 0.000266107 C 16.999904 8.09958 1.999881 11.000531 2.000055 21.999421 " transform="matrix(-2.447286,3.10298,3.10298,2.447286,619.552822,271.247968)"/></g></g></g></g><g style="fill:#000000;fill-opacity:1;"><g transform="translate(746.485289, 236.371971)"><path style="stroke:none" d="M 30.53125 -38.078125 L 30.53125 -31.75 L 19.53125 -31.75 L 19.53125 0 L 12.03125 0 L 12.03125 -31.75 L 1.046875 -31.75 L 1.046875 -38.078125 Z M 30.53125 -38.078125 "/></g></g><g style="fill:#000000;fill-opacity:1;"><g transform="translate(778.055129, 236.371971)"><path style="stroke:none" d="M 4.140625 0 L 4.140625 -40.265625 L 11.359375 -40.265625 L 11.359375 -24.984375 L 11.90625 -24.875 C 12.863281 -26.28125 14.035156 -27.363281 15.421875 -28.125 C 16.804688 -28.894531 18.484375 -29.28125 20.453125 -29.28125 C 26.785156 -29.28125 29.953125 -25.6875 29.953125 -18.5 L 29.953125 0 L 22.734375 0 L 22.734375 -17.578125 C 22.734375 -19.546875 22.34375 -20.972656 21.5625 -21.859375 C 20.78125 -22.742188 19.566406 -23.1875 17.921875 -23.1875 C 15.910156 -23.1875 14.3125 -22.507812 13.125 -21.15625 C 11.945312 -19.8125 11.359375 -17.71875 11.359375 -14.875 L 11.359375 0 Z M 4.140625 0 "/></g></g><g style="fill:#000000;fill-opacity:1;"><g transform="translate(811.708787, 236.371971)"><path style="stroke:none" d="M 28.390625 -12.734375 L 9.921875 -12.734375 C 10.128906 -10.234375 10.84375 -8.414062 12.0625 -7.28125 C 13.28125 -6.144531 14.9375 -5.578125 17.03125 -5.578125 C 18.6875 -5.578125 20.023438 -5.882812 21.046875 -6.5 C 22.066406 -7.113281 22.890625 -8.046875 23.515625 -9.296875 L 24.0625 -9.296875 L 28.859375 -6.21875 C 27.921875 -4.207031 26.503906 -2.578125 24.609375 -1.328125 C 22.722656 -0.078125 20.195312 0.546875 17.03125 0.546875 C 14.0625 0.546875 11.492188 -0.015625 9.328125 -1.140625 C 7.171875 -2.273438 5.503906 -3.957031 4.328125 -6.1875 C 3.160156 -8.414062 2.578125 -11.140625 2.578125 -14.359375 C 2.578125 -17.617188 3.191406 -20.367188 4.421875 -22.609375 C 5.660156 -24.847656 7.328125 -26.519531 9.421875 -27.625 C 11.523438 -28.726562 13.890625 -29.28125 16.515625 -29.28125 C 20.578125 -29.28125 23.6875 -28.203125 25.84375 -26.046875 C 28.007812 -23.890625 29.09375 -20.726562 29.09375 -16.5625 C 29.09375 -15.050781 29.039062 -13.878906 28.9375 -13.046875 Z M 22.1875 -17.40625 C 22.125 -19.59375 21.617188 -21.179688 20.671875 -22.171875 C 19.722656 -23.171875 18.335938 -23.671875 16.515625 -23.671875 C 12.867188 -23.671875 10.722656 -21.582031 10.078125 -17.40625 Z M 22.1875 -17.40625 "/></g></g><g style="fill:#000000;fill-opacity:1;"><g transform="translate(746.485289, 310.69155)"><path style="stroke:none" d="M 30.265625 9.484375 C 26.910156 9.484375 24.125 8.675781 21.90625 7.0625 C 19.695312 5.445312 18.210938 3.195312 17.453125 0.3125 C 14.546875 -0.101562 12.007812 -1.085938 9.84375 -2.640625 C 7.6875 -4.191406 6.003906 -6.335938 4.796875 -9.078125 C 3.597656 -11.828125 3 -15.148438 3 -19.046875 C 3 -23.398438 3.753906 -27.039062 5.265625 -29.96875 C 6.773438 -32.894531 8.863281 -35.066406 11.53125 -36.484375 C 14.195312 -37.910156 17.273438 -38.625 20.765625 -38.625 C 24.253906 -38.625 27.328125 -37.914062 29.984375 -36.5 C 32.640625 -35.082031 34.71875 -32.90625 36.21875 -29.96875 C 37.71875 -27.039062 38.46875 -23.398438 38.46875 -19.046875 C 38.46875 -13.347656 37.25 -8.972656 34.8125 -5.921875 C 32.375 -2.878906 28.945312 -0.984375 24.53125 -0.234375 L 24.40625 0.28125 C 24.945312 1.207031 25.75 1.914062 26.8125 2.40625 C 27.882812 2.90625 29.128906 3.15625 30.546875 3.15625 C 31.691406 3.15625 32.726562 3.003906 33.65625 2.703125 L 34.171875 2.8125 L 35.234375 8.703125 C 34.679688 8.910156 33.9375 9.09375 33 9.25 C 32.0625 9.40625 31.148438 9.484375 30.265625 9.484375 Z M 20.765625 -5.984375 C 23.992188 -5.984375 26.457031 -7.019531 28.15625 -9.09375 C 29.851562 -11.175781 30.703125 -14.492188 30.703125 -19.046875 C 30.703125 -23.585938 29.851562 -26.898438 28.15625 -28.984375 C 26.457031 -31.066406 23.992188 -32.109375 20.765625 -32.109375 C 17.515625 -32.109375 15.03125 -31.066406 13.3125 -28.984375 C 11.601562 -26.898438 10.75 -23.585938 10.75 -19.046875 C 10.75 -14.492188 11.601562 -11.175781 13.3125 -9.09375 C 15.03125 -7.019531 17.515625 -5.984375 20.765625 -5.984375 Z M 20.765625 -5.984375 "/></g></g><g style="fill:#000000;fill-opacity:1;"><g transform="translate(787.979312, 310.69155)"><path style="stroke:none" d="M 13.15625 0.546875 C 9.925781 0.546875 7.539062 -0.332031 6 -2.09375 C 4.46875 -3.851562 3.703125 -6.382812 3.703125 -9.6875 L 3.703125 -28.734375 L 10.90625 -28.734375 L 10.90625 -10.59375 C 10.90625 -8.84375 11.28125 -7.5625 12.03125 -6.75 C 12.789062 -5.945312 13.960938 -5.546875 15.546875 -5.546875 C 17.546875 -5.546875 19.097656 -6.203125 20.203125 -7.515625 C 21.316406 -8.828125 21.875 -10.890625 21.875 -13.703125 L 21.875 -28.734375 L 29.09375 -28.734375 L 29.09375 0 L 22.171875 0 L 22.171875 -4.21875 L 21.625 -4.34375 C 20.695312 -2.695312 19.566406 -1.46875 18.234375 -0.65625 C 16.910156 0.144531 15.21875 0.546875 13.15625 0.546875 Z M 13.15625 0.546875 "/></g></g><g style="fill:#000000;fill-opacity:1;"><g transform="translate(746.485289, 385.011129)"><path style="stroke:none" d="M 19.671875 -38.078125 C 22.390625 -38.078125 24.71875 -37.578125 26.65625 -36.578125 C 28.59375 -35.578125 30.054688 -34.175781 31.046875 -32.375 C 32.035156 -30.582031 32.53125 -28.5 32.53125 -26.125 C 32.53125 -23.75 32.035156 -21.664062 31.046875 -19.875 C 30.054688 -18.082031 28.59375 -16.6875 26.65625 -15.6875 C 24.71875 -14.695312 22.390625 -14.203125 19.671875 -14.203125 L 12.46875 -14.203125 L 12.46875 0 L 4.953125 0 L 4.953125 -38.078125 Z M 18.671875 -20.15625 C 22.859375 -20.15625 24.953125 -22.144531 24.953125 -26.125 C 24.953125 -30.113281 22.859375 -32.109375 18.671875 -32.109375 L 12.46875 -32.109375 L 12.46875 -20.15625 Z M 18.671875 -20.15625 "/></g></g><g style="fill:#000000;fill-opacity:1;"><g transform="translate(780.529611, 385.011129)"><path style="stroke:none" d="M 4.140625 0 L 4.140625 -28.734375 L 11.140625 -28.734375 L 11.140625 -24.453125 L 11.6875 -24.359375 C 12.382812 -25.953125 13.296875 -27.117188 14.421875 -27.859375 C 15.554688 -28.609375 16.929688 -28.984375 18.546875 -28.984375 C 20.179688 -28.984375 21.421875 -28.707031 22.265625 -28.15625 L 21.046875 -21.9375 L 20.5 -21.828125 C 20.03125 -22.015625 19.578125 -22.148438 19.140625 -22.234375 C 18.710938 -22.328125 18.1875 -22.375 17.5625 -22.375 C 15.539062 -22.375 14 -21.664062 12.9375 -20.25 C 11.882812 -18.832031 11.359375 -16.5625 11.359375 -13.4375 L 11.359375 0 Z M 4.140625 0 "/></g></g><g style="fill:#000000;fill-opacity:1;"><g transform="translate(802.305455, 385.011129)"><path style="stroke:none" d="M 16.703125 0.546875 C 13.878906 0.546875 11.40625 -0.03125 9.28125 -1.1875 C 7.15625 -2.34375 5.503906 -4.035156 4.328125 -6.265625 C 3.160156 -8.492188 2.578125 -11.191406 2.578125 -14.359375 C 2.578125 -17.515625 3.160156 -20.210938 4.328125 -22.453125 C 5.503906 -24.691406 7.15625 -26.390625 9.28125 -27.546875 C 11.40625 -28.703125 13.878906 -29.28125 16.703125 -29.28125 C 19.515625 -29.28125 21.984375 -28.703125 24.109375 -27.546875 C 26.234375 -26.390625 27.882812 -24.691406 29.0625 -22.453125 C 30.25 -20.210938 30.84375 -17.515625 30.84375 -14.359375 C 30.84375 -11.191406 30.25 -8.492188 29.0625 -6.265625 C 27.882812 -4.035156 26.234375 -2.34375 24.109375 -1.1875 C 21.984375 -0.03125 19.515625 0.546875 16.703125 0.546875 Z M 16.703125 -5.578125 C 21.160156 -5.578125 23.390625 -8.503906 23.390625 -14.359375 C 23.390625 -17.390625 22.816406 -19.613281 21.671875 -21.03125 C 20.523438 -22.445312 18.867188 -23.15625 16.703125 -23.15625 C 12.234375 -23.15625 10 -20.222656 10 -14.359375 C 10 -8.503906 12.234375 -5.578125 16.703125 -5.578125 Z M 16.703125 -5.578125 "/></g></g><g style="fill:#000000;fill-opacity:1;"><g transform="translate(835.698635, 385.011129)"><path style="stroke:none" d="M 16.75 0.546875 C 13.96875 0.546875 11.507812 -0.03125 9.375 -1.1875 C 7.238281 -2.34375 5.570312 -4.039062 4.375 -6.28125 C 3.175781 -8.519531 2.578125 -11.210938 2.578125 -14.359375 C 2.578125 -17.515625 3.175781 -20.210938 4.375 -22.453125 C 5.570312 -24.691406 7.226562 -26.390625 9.34375 -27.546875 C 11.46875 -28.703125 13.894531 -29.28125 16.625 -29.28125 C 22.675781 -29.28125 26.554688 -27.082031 28.265625 -22.6875 L 23.3125 -19.140625 L 22.765625 -19.140625 C 22.171875 -20.492188 21.398438 -21.5 20.453125 -22.15625 C 19.515625 -22.820312 18.238281 -23.15625 16.625 -23.15625 C 14.539062 -23.15625 12.914062 -22.429688 11.75 -20.984375 C 10.582031 -19.546875 10 -17.335938 10 -14.359375 C 10 -11.398438 10.585938 -9.195312 11.765625 -7.75 C 12.953125 -6.300781 14.613281 -5.578125 16.75 -5.578125 C 18.3125 -5.578125 19.632812 -5.992188 20.71875 -6.828125 C 21.800781 -7.671875 22.578125 -8.882812 23.046875 -10.46875 L 23.59375 -10.515625 L 28.734375 -7.703125 C 28.003906 -5.273438 26.648438 -3.289062 24.671875 -1.75 C 22.703125 -0.21875 20.0625 0.546875 16.75 0.546875 Z M 16.75 0.546875 "/></g></g><g style="fill:#000000;fill-opacity:1;"><g transform="translate(865.314896, 385.011129)"><path style="stroke:none" d="M 28.390625 -12.734375 L 9.921875 -12.734375 C 10.128906 -10.234375 10.84375 -8.414062 12.0625 -7.28125 C 13.28125 -6.144531 14.9375 -5.578125 17.03125 -5.578125 C 18.6875 -5.578125 20.023438 -5.882812 21.046875 -6.5 C 22.066406 -7.113281 22.890625 -8.046875 23.515625 -9.296875 L 24.0625 -9.296875 L 28.859375 -6.21875 C 27.921875 -4.207031 26.503906 -2.578125 24.609375 -1.328125 C 22.722656 -0.078125 20.195312 0.546875 17.03125 0.546875 C 14.0625 0.546875 11.492188 -0.015625 9.328125 -1.140625 C 7.171875 -2.273438 5.503906 -3.957031 4.328125 -6.1875 C 3.160156 -8.414062 2.578125 -11.140625 2.578125 -14.359375 C 2.578125 -17.617188 3.191406 -20.367188 4.421875 -22.609375 C 5.660156 -24.847656 7.328125 -26.519531 9.421875 -27.625 C 11.523438 -28.726562 13.890625 -29.28125 16.515625 -29.28125 C 20.578125 -29.28125 23.6875 -28.203125 25.84375 -26.046875 C 28.007812 -23.890625 29.09375 -20.726562 29.09375 -16.5625 C 29.09375 -15.050781 29.039062 -13.878906 28.9375 -13.046875 Z M 22.1875 -17.40625 C 22.125 -19.59375 21.617188 -21.179688 20.671875 -22.171875 C 19.722656 -23.171875 18.335938 -23.671875 16.515625 -23.671875 C 12.867188 -23.671875 10.722656 -21.582031 10.078125 -17.40625 Z M 22.1875 -17.40625 "/></g></g><g style="fill:#000000;fill-opacity:1;"><g transform="translate(896.546116, 385.011129)"><path style="stroke:none" d="M 13.4375 0.546875 C 11.476562 0.546875 9.679688 0.316406 8.046875 -0.140625 C 6.410156 -0.597656 5.015625 -1.226562 3.859375 -2.03125 C 2.710938 -2.84375 1.859375 -3.769531 1.296875 -4.8125 L 5.3125 -9.140625 L 5.859375 -9.140625 C 6.816406 -7.859375 7.945312 -6.894531 9.25 -6.25 C 10.550781 -5.601562 11.96875 -5.28125 13.5 -5.28125 C 14.90625 -5.28125 15.960938 -5.53125 16.671875 -6.03125 C 17.378906 -6.539062 17.734375 -7.265625 17.734375 -8.203125 C 17.734375 -8.929688 17.476562 -9.539062 16.96875 -10.03125 C 16.457031 -10.53125 15.628906 -10.921875 14.484375 -11.203125 L 10.671875 -12.109375 C 7.828125 -12.785156 5.75 -13.820312 4.4375 -15.21875 C 3.125 -16.625 2.46875 -18.398438 2.46875 -20.546875 C 2.46875 -22.335938 2.921875 -23.890625 3.828125 -25.203125 C 4.742188 -26.523438 6.03125 -27.535156 7.6875 -28.234375 C 9.351562 -28.929688 11.289062 -29.28125 13.5 -29.28125 C 16.082031 -29.28125 18.222656 -28.90625 19.921875 -28.15625 C 21.628906 -27.40625 22.957031 -26.40625 23.90625 -25.15625 L 20.0625 -21 L 19.53125 -21 C 18.738281 -21.894531 17.84375 -22.550781 16.84375 -22.96875 C 15.84375 -23.382812 14.726562 -23.59375 13.5 -23.59375 C 10.644531 -23.59375 9.21875 -22.707031 9.21875 -20.9375 C 9.21875 -20.195312 9.484375 -19.59375 10.015625 -19.125 C 10.546875 -18.65625 11.476562 -18.269531 12.8125 -17.96875 L 16.359375 -17.1875 C 19.273438 -16.5625 21.40625 -15.554688 22.75 -14.171875 C 24.09375 -12.796875 24.765625 -10.945312 24.765625 -8.625 C 24.765625 -6.800781 24.3125 -5.191406 23.40625 -3.796875 C 22.507812 -2.410156 21.207031 -1.335938 19.5 -0.578125 C 17.800781 0.171875 15.78125 0.546875 13.4375 0.546875 Z M 13.4375 0.546875 "/></g></g><g style="fill:#000000;fill-opacity:1;"><g transform="translate(923.03665, 385.011129)"><path style="stroke:none" d="M 13.4375 0.546875 C 11.476562 0.546875 9.679688 0.316406 8.046875 -0.140625 C 6.410156 -0.597656 5.015625 -1.226562 3.859375 -2.03125 C 2.710938 -2.84375 1.859375 -3.769531 1.296875 -4.8125 L 5.3125 -9.140625 L 5.859375 -9.140625 C 6.816406 -7.859375 7.945312 -6.894531 9.25 -6.25 C 10.550781 -5.601562 11.96875 -5.28125 13.5 -5.28125 C 14.90625 -5.28125 15.960938 -5.53125 16.671875 -6.03125 C 17.378906 -6.539062 17.734375 -7.265625 17.734375 -8.203125 C 17.734375 -8.929688 17.476562 -9.539062 16.96875 -10.03125 C 16.457031 -10.53125 15.628906 -10.921875 14.484375 -11.203125 L 10.671875 -12.109375 C 7.828125 -12.785156 5.75 -13.820312 4.4375 -15.21875 C 3.125 -16.625 2.46875 -18.398438 2.46875 -20.546875 C 2.46875 -22.335938 2.921875 -23.890625 3.828125 -25.203125 C 4.742188 -26.523438 6.03125 -27.535156 7.6875 -28.234375 C 9.351562 -28.929688 11.289062 -29.28125 13.5 -29.28125 C 16.082031 -29.28125 18.222656 -28.90625 19.921875 -28.15625 C 21.628906 -27.40625 22.957031 -26.40625 23.90625 -25.15625 L 20.0625 -21 L 19.53125 -21 C 18.738281 -21.894531 17.84375 -22.550781 16.84375 -22.96875 C 15.84375 -23.382812 14.726562 -23.59375 13.5 -23.59375 C 10.644531 -23.59375 9.21875 -22.707031 9.21875 -20.9375 C 9.21875 -20.195312 9.484375 -19.59375 10.015625 -19.125 C 10.546875 -18.65625 11.476562 -18.269531 12.8125 -17.96875 L 16.359375 -17.1875 C 19.273438 -16.5625 21.40625 -15.554688 22.75 -14.171875 C 24.09375 -12.796875 24.765625 -10.945312 24.765625 -8.625 C 24.765625 -6.800781 24.3125 -5.191406 23.40625 -3.796875 C 22.507812 -2.410156 21.207031 -1.335938 19.5 -0.578125 C 17.800781 0.171875 15.78125 0.546875 13.4375 0.546875 Z M 13.4375 0.546875 "/></g></g><g style="fill:#000000;fill-opacity:1;"><g transform="translate(949.527183, 385.011129)"><path style="stroke:none" d="M 16.703125 0.546875 C 13.878906 0.546875 11.40625 -0.03125 9.28125 -1.1875 C 7.15625 -2.34375 5.503906 -4.035156 4.328125 -6.265625 C 3.160156 -8.492188 2.578125 -11.191406 2.578125 -14.359375 C 2.578125 -17.515625 3.160156 -20.210938 4.328125 -22.453125 C 5.503906 -24.691406 7.15625 -26.390625 9.28125 -27.546875 C 11.40625 -28.703125 13.878906 -29.28125 16.703125 -29.28125 C 19.515625 -29.28125 21.984375 -28.703125 24.109375 -27.546875 C 26.234375 -26.390625 27.882812 -24.691406 29.0625 -22.453125 C 30.25 -20.210938 30.84375 -17.515625 30.84375 -14.359375 C 30.84375 -11.191406 30.25 -8.492188 29.0625 -6.265625 C 27.882812 -4.035156 26.234375 -2.34375 24.109375 -1.1875 C 21.984375 -0.03125 19.515625 0.546875 16.703125 0.546875 Z M 16.703125 -5.578125 C 21.160156 -5.578125 23.390625 -8.503906 23.390625 -14.359375 C 23.390625 -17.390625 22.816406 -19.613281 21.671875 -21.03125 C 20.523438 -22.445312 18.867188 -23.15625 16.703125 -23.15625 C 12.234375 -23.15625 10 -20.222656 10 -14.359375 C 10 -8.503906 12.234375 -5.578125 16.703125 -5.578125 Z M 16.703125 -5.578125 "/></g></g><g style="fill:#000000;fill-opacity:1;"><g transform="translate(982.920364, 385.011129)"><path style="stroke:none" d="M 4.140625 0 L 4.140625 -28.734375 L 11.140625 -28.734375 L 11.140625 -24.453125 L 11.6875 -24.359375 C 12.382812 -25.953125 13.296875 -27.117188 14.421875 -27.859375 C 15.554688 -28.609375 16.929688 -28.984375 18.546875 -28.984375 C 20.179688 -28.984375 21.421875 -28.707031 22.265625 -28.15625 L 21.046875 -21.9375 L 20.5 -21.828125 C 20.03125 -22.015625 19.578125 -22.148438 19.140625 -22.234375 C 18.710938 -22.328125 18.1875 -22.375 17.5625 -22.375 C 15.539062 -22.375 14 -21.664062 12.9375 -20.25 C 11.882812 -18.832031 11.359375 -16.5625 11.359375 -13.4375 L 11.359375 0 Z M 4.140625 0 "/></g></g></g></svg>